<?xml version="1.0" encoding="utf-8"?>
<!-- Generator: Adobe Illustrator 19.1.0, SVG Export Plug-In . SVG Version: 6.00 Build 0)  -->
<svg version="1.1" id="loader-v3" xmlns="http://www.w3.org/2000/svg" xmlns:xlink="http://www.w3.org/1999/xlink" x="0px" y="0px"
	 viewBox="220.7 61.8 611 611" style="enable-background:new 220.7 61.8 611 611;" xml:space="preserve">
	
<style type="text/css">
	.st0{fill:#00AAE7;}
</style>
<g>
	<path class="st0 path-1" d="M544.8,147.5l43.2,134l0,0h140.8c2.9-8,12.3-15.2,20.6-17.8c0.1,0,3.1-1,3.8-1.2l-46.9-144.2H555.5
		c0,0,0,4.1,0,4.2C555.5,131.1,551.5,142.3,544.8,147.5z"/>
	<path class="st0 path-2" d="M771.7,319.4c-0.3,0.1-3.8,1.2-3.9,1.3c-8.2,2.7-20.1,2.3-27.1-2.5L632,396.4l-6.4,4.7l44.8,132.8
		c8.5,0.2,18.3,6.8,23.5,13.8c0.1,0.1,1.7,2.3,2.2,3L818,462.1L771.7,319.4z"/>
	<path class="st0 path-3" d="M301.7,263.7c8.2,2.7,17.7,9.9,20.6,17.8h140.8l43.2-134c-6.7-5.2-10.7-16.4-10.7-25c0-0.1,0-4.2,0-4.2H344.8
		l-46.9,144.2C298.5,262.7,301.6,263.7,301.7,263.7z"/>
	<path class="st0 path-4" d="M357.2,550.3c5-7,14.8-13.8,23.2-14.1l42.9-134.1l0.7-2.1l-113.6-81.7c-7,4.8-18.9,5.1-27.1,2.5
		c-0.1,0-3.7-1.2-3.9-1.3L233,462.2l123.2,89.5C356.7,551,357.2,550.4,357.2,550.3z"/>
	<path class="st0 path-5" d="M645.7,583.3c-5.1-6.9-8.6-18.3-6.3-26.5l-114.5-82l0,0l-113.2,83.8c2.4,8.1-0.9,19.5-5.9,26.6
		c0,0-0.6,0.8-1.2,1.6l120.8,87.8l122.3-88.7C646.9,584.9,645.8,583.3,645.7,583.3z"/>
	
</g>
</svg>
